<svg version="1.1" id="logo-investhk" xmlns="http://www.w3.org/2000/svg" xmlns:xlink="http://www.w3.org/1999/xlink" viewBox="-30 210 700 230" fill="#ffffff" >
<g>
	<path class="st0" d="M83.5,299.5c-10.6,0-17.9,3.9-24.7,13.3v-11.5H46.5v94.2h12.4l-0.1-65.1c7-12.6,14.1-17.8,24.3-17.8
		c16.3,0,19.7,15.6,19.7,28.6v54.2h12.4v-57.8C115.1,314.1,103,299.5,83.5,299.5"/>
	<path class="st0" d="M182.6,301.3l-0.2,0.6c0,0-22.3,57.8-27.2,70.6c-5.1-12.7-28.4-70.6-28.4-70.6l-0.2-0.6h-12.9l37.8,94.2h8
		l35.7-94.2H182.6z"/>
	<path class="st0" d="M229.7,312.6c12.2,0,19.7,7.2,22.8,22h-46.8C209,321,218.1,312.6,229.7,312.6 M267,346.2v-1.9
		c0-30.7-19.3-44.7-37.2-44.7c-22.3,0-38.5,19.7-38.5,46.9c0,28.4,17.6,49.1,41.7,49.1c12.1,0,22.2-3.9,31.9-12.2l0.7-0.6v-15.9
		l-3.2,2.9c-10,9-18.2,12.7-28.3,12.7c-7.9,0-15.7-3.6-21.4-10c-5.7-6.4-8.7-14.5-8.7-23.5c0-0.9,0-1.8,0.1-2.7H267z"/>
	<path class="st0" d="M303.2,340.5c-9.3-4-16.6-7.1-16.6-15.4c0-7.3,6.6-13,15.1-13c6.5,0,11.9,2.3,20.7,8.7l3.1,2.2v-14.6l-0.9-1.1
		c-8.5-5.5-15.2-7.8-22.3-7.8c-15.5,0-27.7,11.5-27.7,26.2c0,16.6,13.4,22.4,24.1,27.2c9.2,4.1,17.2,7.5,17.2,16.1
		c0,7.9-6.1,13.4-14.9,13.4c-7.3,0-14.1-2.2-24.1-7.8l-2.9-1.6V386l0.9,1.1c8.4,5.7,16.4,8.4,25,8.4c15.7,0,28-11.6,28-26.4
		C328,351,314.8,345.5,303.2,340.5"/>
	<path class="st0" d="M390.4,378.2c-6.8,3.4-9.2,4.1-13.7,4.1c-9.3,0-10-2.6-10-18.8v-50.7h22.4v-11.6h-22.4v-29.4l-5.9,0.4
		l-6.5,9.5v19.5h-21.5v11.6h21.5v61.8c0,14.4,10.2,20.8,20.4,20.8c3.2,0,6.9-0.9,9.8-1.6c3.8-1.2,6.2-2.2,7.7-3.2l0.9-0.6v-13.2
		L390.4,378.2z"/>
</g>
<rect x="20.1" y="249.1" class="st0" width="12.4" height="146.3"/>
<polygon class="st1" points="403.3,249.3 444,249.3 444,302.1 488.4,302.1 488.4,249.3 529.5,249.3 529.5,314.5 575.6,249.3 
	618.4,249.3 571,316.8 620.1,395.5 571.5,395.5 529.5,326.6 529.5,395.5 488.4,395.5 488.4,339.5 444,339.5 444,395.5 403.3,395.5 
	"/>
</svg>
