<svg xmlns="http://www.w3.org/2000/svg" viewBox="0 0 1002 209" fill="#ffffff"><defs></defs><path class="cls-1" d="M57.12,114.71H1.56V2.48H55.37C78.13,2.48,92.14,13,92.14,31.61c0,13.53-8,22.45-18.94,25.47,13.37,3,21.49,14.33,21.49,27.07C94.69,103.09,81.16,114.71,57.12,114.71Zm-8.6-87.39H32.76V47.06H48.52c7.64,0,11.78-3.19,11.78-9.71C60.3,30.66,56.16,27.32,48.52,27.32Zm2.23,41.86h-18V89.56H50.91c7.8,0,11.78-3.18,11.78-9.87C62.69,72.84,58.39,69.18,50.75,69.18Z"/><path class="cls-1" d="M108,2.48h31V67.59c0,11.62,5.25,18.94,17,18.94s17.35-7.32,17.35-18.94V2.48h31.2V67.59c0,32-22.29,48.24-49.19,48.24-27.06,0-47.43-16.24-47.43-48.24Z"/><path class="cls-1" d="M221.84,2.48H253V114.71h-31.2Z"/><path class="cls-1" d="M302.09,2.48V87.17H337v27.54H270.89V2.48Z"/><path class="cls-1" d="M327.23,2.48H418V27.31H388v87.4h-31.2V27.31h-29.6Z"/><path class="cls-1" d="M647.56,115.83c-31.84,0-57.63-23.88-57.63-57.63S615.72.73,647.56.73C679.55.73,705,24.45,705,58.2S679.39,115.83,647.56,115.83Zm0-29c16.07,0,25.79-11.31,25.79-28.66,0-17.67-9.72-28.82-25.79-28.82-16.24,0-25.79,11.15-25.79,28.82C621.77,75.55,631.32,86.86,647.56,86.86Z"/><path class="cls-1" d="M764.22,2.48c27.86,0,41.87,15.92,41.87,36,0,14.64-8,27.38-24.68,32.47l25.32,43.78H771.86L749.58,73.32h-3.35v41.39H715V2.48Zm-2.55,26.11H746.23V52h15.44c8.44,0,12.74-4.14,12.74-11.78C774.41,33.21,770.11,28.59,761.67,28.59Z"/><path class="cls-1" d="M851.52,2.48V87.17h34.86v27.54H820.31V2.48Z"/><path class="cls-1" d="M1001.51,58.51c0,32.48-22.76,56.2-58.58,56.2H898.52V2.48h44.41C978.75,2.48,1001.51,25.57,1001.51,58.51Zm-61,28.66c18,0,29.29-10.18,29.29-28.66s-11.3-29-29.29-29H929.72V87.17Z"/><path class="cls-1" d="M427.35,2.48H461.1l13,76.74L491.81,2.48H526l17.19,76.1,13-76.1H590L562.49,114.71H524.13L508.69,45.94l-15.76,68.77H454.56Z"/><path class="cls-1" d="M9.72,151.41v48.84h19v7.46H.49v-56.3Z"/><path class="cls-1" d="M77.2,158.86H55.33v16.53H74.77v7.53H55.33v17.25H77.2v7.54H46.09V151.32H77.2Z"/><path class="cls-1" d="M132,196.2H108.39l-4,11.51H94.71l20.17-56.39h10.69l20.17,56.39H136Zm-11.74-33.7L111,188.67h18.39Z"/><path class="cls-1" d="M212,179.75c0,17.35-11.82,28-29.89,28H163.68v-56.3h18.39C200.14,151.41,212,162.34,212,179.75Zm-29.89,20.42c13.29,0,20.42-7.61,20.42-20.42s-7.13-20.81-20.42-20.81h-9.15v41.23Z"/><path class="cls-1" d="M231.83,151.41h9.24v56.3h-9.24Z"/><path class="cls-1" d="M308.21,151.32v56.39H299l-27.79-42.05v42.05H262V151.32h9.23l27.79,42v-42Z"/><path class="cls-1" d="M380.92,167.61h-11.1c-3-5.68-8.34-8.51-15.06-8.51-11.18,0-19.29,7.94-19.29,20.33s8.11,20.41,19.29,20.41c10.2,0,16.61-6.15,18-15.63H351.6v-7.37h31v7.21a27.75,27.75,0,0,1-27.86,24.14c-15.88,0-28.76-11.83-28.76-28.76s12.88-28.76,28.76-28.76C366.51,150.67,376.63,156.59,380.92,167.61Z"/><path class="cls-1" d="M429.71,151.41H439v56.3h-9.24Z"/><path class="cls-1" d="M508,151.32v56.39h-9.23L471,165.66v42.05h-9.25V151.32H471l27.78,42v-42Z"/><path class="cls-1" d="M577.11,151.32v56.39h-9.23l-27.79-42.05v42.05h-9.24V151.32h9.24l27.79,42v-42Z"/><path class="cls-1" d="M625.66,208.27c-15.88,0-28.76-11.91-28.76-28.84s12.88-28.76,28.76-28.76c16,0,28.76,11.91,28.76,28.76S641.7,208.27,625.66,208.27Zm0-8c11.18,0,19.28-8.1,19.28-20.82s-8.1-20.66-19.28-20.66-19.28,7.94-19.28,20.66S614.48,200.25,625.66,200.25Z"/><path class="cls-1" d="M709.7,151.41h9.73l-21.15,56.3h-10.7l-21.21-56.3h9.87l16.7,46.81Z"/><path class="cls-1" d="M762.49,196.2H738.91l-4,11.51h-9.64l20.17-56.39h10.69l20.17,56.39h-9.72Zm-11.74-33.7-9.24,26.17H759.9Z"/><path class="cls-1" d="M785.38,151.41h39.29v7.53h-15v48.77h-9.25V158.94H785.38Z"/><path class="cls-1" d="M844.16,151.41h9.23v56.3h-9.23Z"/><path class="cls-1" d="M901.76,208.27c-15.88,0-28.75-11.91-28.75-28.84s12.87-28.76,28.75-28.76c16,0,28.76,11.91,28.76,28.76S917.8,208.27,901.76,208.27Zm0-8c11.18,0,19.28-8.1,19.28-20.82s-8.1-20.66-19.28-20.66-19.28,7.94-19.28,20.66S890.58,200.25,901.76,200.25Z"/><path class="cls-1" d="M996.53,151.32v56.39H987.3l-27.79-42.05v42.05h-9.24V151.32h9.24l27.79,42v-42Z"/></svg>
