<?xml version="1.0" standalone="no"?>
<!DOCTYPE svg PUBLIC "-//W3C//DTD SVG 20010904//EN"
 "http://www.w3.org/TR/2001/REC-SVG-20010904/DTD/svg10.dtd">
<svg version="1.0" xmlns="http://www.w3.org/2000/svg"
 width="1200.000000pt" height="1200.000000pt" viewBox="0 0 1200.000000 1200.000000"
 preserveAspectRatio="xMidYMid meet">
<metadata>
Created by potrace 1.14, written by Peter Selinger 2001-2017
</metadata>
<g transform="translate(0.000000,1200.000000) scale(0.100000,-0.100000)"
fill="#000000" stroke="none">
<path d="M1438 11995 c-1 -2 -44 -6 -93 -10 -121 -9 -142 -11 -195 -20 -272
-42 -537 -174 -726 -360 -202 -198 -317 -411 -380 -700 -2 -11 -7 -36 -9 -55
-3 -19 -7 -48 -10 -65 -3 -16 -8 -75 -12 -130 -10 -127 -10 -9179 0 -9300 21
-269 58 -417 147 -598 67 -134 139 -235 245 -342 106 -108 203 -178 339 -247
104 -52 274 -113 343 -122 22 -3 52 -7 65 -10 32 -7 104 -15 233 -23 145 -10
9109 -10 9246 0 58 4 117 9 130 12 13 2 47 6 76 9 312 35 663 237 861 496 23
30 45 60 50 65 23 29 93 161 125 235 39 91 81 240 93 330 4 30 9 64 10 75 15
115 18 825 19 4750 0 4061 -2 4684 -19 4775 -2 14 -7 48 -10 75 -6 53 -8 62
-25 135 -75 324 -312 647 -601 819 -165 98 -370 166 -560 186 -30 4 -77 9
-105 12 -53 6 -9230 14 -9237 8z"/>
</g>
</svg>
